<mxfile host="app.diagrams.net" modified="2023-06-06T19:03:39.825Z" agent="Mozilla/5.0 (Windows NT 10.0; Win64; x64) AppleWebKit/537.36 (KHTML, like Gecko) Chrome/113.0.0.0 Safari/537.36" version="21.3.7" etag="BW-6hv5kW0cs3FlYuZBm" type="github">
  <diagram name="Page-1" id="f8tOBUbELBWD9uiB3Neq">
    <mxGraphModel>
      <root>
        <mxCell id="0" />
        <mxCell id="1" parent="0" />
      </root>
    </mxGraphModel>
  </diagram>
</mxfile>
